<?xml version="1.0" encoding="utf-8"?>
<svg xmlns="http://www.w3.org/2000/svg" xmlns:xlink="http://www.w3.org/1999/xlink" width="600" height="400" viewBox="0 0 2400 1600">
<defs>
  <clipPath id="clip3600">
    <rect x="0" y="0" width="2400" height="1600"/>
  </clipPath>
</defs>
<path clip-path="url(#clip3600)" d="
M0 1600 L2400 1600 L2400 0 L0 0  Z
  " fill="#ffffff" fill-rule="evenodd" fill-opacity="1"/>
<defs>
  <clipPath id="clip3601">
    <rect x="480" y="0" width="1681" height="1600"/>
  </clipPath>
</defs>
<path clip-path="url(#clip3600)" d="
M180.66 1425.62 L2352.76 1425.62 L2352.76 121.675 L180.66 121.675  Z
  " fill="#ffffff" fill-rule="evenodd" fill-opacity="1"/>
<defs>
  <clipPath id="clip3602">
    <rect x="180" y="121" width="2173" height="1305"/>
  </clipPath>
</defs>
<polyline clip-path="url(#clip3602)" style="stroke:#000000; stroke-width:2; stroke-opacity:0.1; fill:none" points="
  242.135,1425.62 242.135,121.675 
  "/>
<polyline clip-path="url(#clip3602)" style="stroke:#000000; stroke-width:2; stroke-opacity:0.1; fill:none" points="
  754.421,1425.62 754.421,121.675 
  "/>
<polyline clip-path="url(#clip3602)" style="stroke:#000000; stroke-width:2; stroke-opacity:0.1; fill:none" points="
  1266.71,1425.62 1266.71,121.675 
  "/>
<polyline clip-path="url(#clip3602)" style="stroke:#000000; stroke-width:2; stroke-opacity:0.1; fill:none" points="
  1778.99,1425.62 1778.99,121.675 
  "/>
<polyline clip-path="url(#clip3602)" style="stroke:#000000; stroke-width:2; stroke-opacity:0.1; fill:none" points="
  2291.28,1425.62 2291.28,121.675 
  "/>
<polyline clip-path="url(#clip3602)" style="stroke:#000000; stroke-width:2; stroke-opacity:0.1; fill:none" points="
  180.66,1388.71 2352.76,1388.71 
  "/>
<polyline clip-path="url(#clip3602)" style="stroke:#000000; stroke-width:2; stroke-opacity:0.1; fill:none" points="
  180.66,1081.18 2352.76,1081.18 
  "/>
<polyline clip-path="url(#clip3602)" style="stroke:#000000; stroke-width:2; stroke-opacity:0.1; fill:none" points="
  180.66,773.647 2352.76,773.647 
  "/>
<polyline clip-path="url(#clip3602)" style="stroke:#000000; stroke-width:2; stroke-opacity:0.1; fill:none" points="
  180.66,466.113 2352.76,466.113 
  "/>
<polyline clip-path="url(#clip3602)" style="stroke:#000000; stroke-width:2; stroke-opacity:0.1; fill:none" points="
  180.66,158.579 2352.76,158.579 
  "/>
<polyline clip-path="url(#clip3600)" style="stroke:#000000; stroke-width:4; stroke-opacity:1; fill:none" points="
  180.66,1425.62 2352.76,1425.62 
  "/>
<polyline clip-path="url(#clip3600)" style="stroke:#000000; stroke-width:4; stroke-opacity:1; fill:none" points="
  180.66,1425.62 180.66,121.675 
  "/>
<polyline clip-path="url(#clip3600)" style="stroke:#000000; stroke-width:4; stroke-opacity:1; fill:none" points="
  242.135,1425.62 242.135,1406.06 
  "/>
<polyline clip-path="url(#clip3600)" style="stroke:#000000; stroke-width:4; stroke-opacity:1; fill:none" points="
  754.421,1425.62 754.421,1406.06 
  "/>
<polyline clip-path="url(#clip3600)" style="stroke:#000000; stroke-width:4; stroke-opacity:1; fill:none" points="
  1266.71,1425.62 1266.71,1406.06 
  "/>
<polyline clip-path="url(#clip3600)" style="stroke:#000000; stroke-width:4; stroke-opacity:1; fill:none" points="
  1778.99,1425.62 1778.99,1406.06 
  "/>
<polyline clip-path="url(#clip3600)" style="stroke:#000000; stroke-width:4; stroke-opacity:1; fill:none" points="
  2291.28,1425.62 2291.28,1406.06 
  "/>
<polyline clip-path="url(#clip3600)" style="stroke:#000000; stroke-width:4; stroke-opacity:1; fill:none" points="
  180.66,1388.71 213.242,1388.71 
  "/>
<polyline clip-path="url(#clip3600)" style="stroke:#000000; stroke-width:4; stroke-opacity:1; fill:none" points="
  180.66,1081.18 213.242,1081.18 
  "/>
<polyline clip-path="url(#clip3600)" style="stroke:#000000; stroke-width:4; stroke-opacity:1; fill:none" points="
  180.66,773.647 213.242,773.647 
  "/>
<polyline clip-path="url(#clip3600)" style="stroke:#000000; stroke-width:4; stroke-opacity:1; fill:none" points="
  180.66,466.113 213.242,466.113 
  "/>
<polyline clip-path="url(#clip3600)" style="stroke:#000000; stroke-width:4; stroke-opacity:1; fill:none" points="
  180.66,158.579 213.242,158.579 
  "/>
<g clip-path="url(#clip3600)">
<text style="fill:#000000; fill-opacity:1; font-family:Arial,Helvetica Neue,Helvetica,sans-serif; font-size:48px; text-anchor:middle;" transform="rotate(0, 242.135, 1479.62)" x="242.135" y="1479.62">-1.0</text>
</g>
<g clip-path="url(#clip3600)">
<text style="fill:#000000; fill-opacity:1; font-family:Arial,Helvetica Neue,Helvetica,sans-serif; font-size:48px; text-anchor:middle;" transform="rotate(0, 754.421, 1479.62)" x="754.421" y="1479.62">-0.5</text>
</g>
<g clip-path="url(#clip3600)">
<text style="fill:#000000; fill-opacity:1; font-family:Arial,Helvetica Neue,Helvetica,sans-serif; font-size:48px; text-anchor:middle;" transform="rotate(0, 1266.71, 1479.62)" x="1266.71" y="1479.62">0.0</text>
</g>
<g clip-path="url(#clip3600)">
<text style="fill:#000000; fill-opacity:1; font-family:Arial,Helvetica Neue,Helvetica,sans-serif; font-size:48px; text-anchor:middle;" transform="rotate(0, 1778.99, 1479.62)" x="1778.99" y="1479.62">0.5</text>
</g>
<g clip-path="url(#clip3600)">
<text style="fill:#000000; fill-opacity:1; font-family:Arial,Helvetica Neue,Helvetica,sans-serif; font-size:48px; text-anchor:middle;" transform="rotate(0, 2291.28, 1479.62)" x="2291.28" y="1479.62">1.0</text>
</g>
<g clip-path="url(#clip3600)">
<text style="fill:#000000; fill-opacity:1; font-family:Arial,Helvetica Neue,Helvetica,sans-serif; font-size:48px; text-anchor:end;" transform="rotate(0, 156.66, 1406.21)" x="156.66" y="1406.21">0.00</text>
</g>
<g clip-path="url(#clip3600)">
<text style="fill:#000000; fill-opacity:1; font-family:Arial,Helvetica Neue,Helvetica,sans-serif; font-size:48px; text-anchor:end;" transform="rotate(0, 156.66, 1098.68)" x="156.66" y="1098.68">0.25</text>
</g>
<g clip-path="url(#clip3600)">
<text style="fill:#000000; fill-opacity:1; font-family:Arial,Helvetica Neue,Helvetica,sans-serif; font-size:48px; text-anchor:end;" transform="rotate(0, 156.66, 791.147)" x="156.66" y="791.147">0.50</text>
</g>
<g clip-path="url(#clip3600)">
<text style="fill:#000000; fill-opacity:1; font-family:Arial,Helvetica Neue,Helvetica,sans-serif; font-size:48px; text-anchor:end;" transform="rotate(0, 156.66, 483.613)" x="156.66" y="483.613">0.75</text>
</g>
<g clip-path="url(#clip3600)">
<text style="fill:#000000; fill-opacity:1; font-family:Arial,Helvetica Neue,Helvetica,sans-serif; font-size:48px; text-anchor:end;" transform="rotate(0, 156.66, 176.079)" x="156.66" y="176.079">1.00</text>
</g>
<g clip-path="url(#clip3600)">
<text style="fill:#000000; fill-opacity:1; font-family:Arial,Helvetica Neue,Helvetica,sans-serif; font-size:84px; text-anchor:middle;" transform="rotate(0, 1266.71, 73.2)" x="1266.71" y="73.2">ReLU activation function</text>
</g>
<g clip-path="url(#clip3600)">
<text style="fill:#000000; fill-opacity:1; font-family:Arial,Helvetica Neue,Helvetica,sans-serif; font-size:66px; text-anchor:middle;" transform="rotate(0, 1266.71, 1559.48)" x="1266.71" y="1559.48">x</text>
</g>
<polyline clip-path="url(#clip3602)" style="stroke:#009af9; stroke-width:4; stroke-opacity:1; fill:none" points="
  242.135,1388.71 262.833,1388.71 283.532,1388.71 304.23,1388.71 324.929,1388.71 345.627,1388.71 366.325,1388.71 387.024,1388.71 407.722,1388.71 428.421,1388.71 
  449.119,1388.71 469.818,1388.71 490.516,1388.71 511.215,1388.71 531.913,1388.71 552.612,1388.71 573.31,1388.71 594.008,1388.71 614.707,1388.71 635.405,1388.71 
  656.104,1388.71 676.802,1388.71 697.501,1388.71 718.199,1388.71 738.898,1388.71 759.596,1388.71 780.294,1388.71 800.993,1388.71 821.691,1388.71 842.39,1388.71 
  863.088,1388.71 883.787,1388.71 904.485,1388.71 925.184,1388.71 945.882,1388.71 966.581,1388.71 987.279,1388.71 1007.98,1388.71 1028.68,1388.71 1049.37,1388.71 
  1070.07,1388.71 1090.77,1388.71 1111.47,1388.71 1132.17,1388.71 1152.87,1388.71 1173.57,1388.71 1194.26,1388.71 1214.96,1388.71 1235.66,1388.71 1256.36,1388.71 
  1277.06,1376.29 1297.76,1351.44 1318.45,1326.59 1339.15,1301.74 1359.85,1276.88 1380.55,1252.03 1401.25,1227.18 1421.95,1202.33 1442.64,1177.48 1463.34,1152.63 
  1484.04,1127.78 1504.74,1102.93 1525.44,1078.07 1546.14,1053.22 1566.84,1028.37 1587.53,1003.52 1608.23,978.669 1628.93,953.818 1649.63,928.967 1670.33,904.116 
  1691.03,879.265 1711.72,854.413 1732.42,829.562 1753.12,804.711 1773.82,779.86 1794.52,755.008 1815.22,730.157 1835.92,705.306 1856.61,680.455 1877.31,655.604 
  1898.01,630.752 1918.71,605.901 1939.41,581.05 1960.11,556.199 1980.8,531.347 2001.5,506.496 2022.2,481.645 2042.9,456.794 2063.6,431.943 2084.3,407.091 
  2105,382.24 2125.69,357.389 2146.39,332.538 2167.09,307.687 2187.79,282.835 2208.49,257.984 2229.19,233.133 2249.88,208.282 2270.58,183.43 2291.28,158.579 
  
  "/>
<path clip-path="url(#clip3600)" d="
M1904.39 326.155 L2280.76 326.155 L2280.76 205.195 L1904.39 205.195  Z
  " fill="#ffffff" fill-rule="evenodd" fill-opacity="1"/>
<polyline clip-path="url(#clip3600)" style="stroke:#000000; stroke-width:4; stroke-opacity:1; fill:none" points="
  1904.39,326.155 2280.76,326.155 2280.76,205.195 1904.39,205.195 1904.39,326.155 
  "/>
<polyline clip-path="url(#clip3600)" style="stroke:#009af9; stroke-width:4; stroke-opacity:1; fill:none" points="
  1928.39,265.675 2072.39,265.675 
  "/>
<g clip-path="url(#clip3600)">
<text style="fill:#000000; fill-opacity:1; font-family:Arial,Helvetica Neue,Helvetica,sans-serif; font-size:48px; text-anchor:start;" transform="rotate(0, 2096.39, 283.175)" x="2096.39" y="283.175">relu(x)</text>
</g>
</svg>
